<svg xmlns="http://www.w3.org/2000/svg" xmlns:xlink="http://www.w3.org/1999/xlink" width="2192.137" height="876.741" viewBox="0 0 2192.137 876.741">
  <defs>
    <radialGradient id="radial-gradient" cx="0.499" cy="0.506" r="0.652" gradientTransform="translate(0.142) scale(0.716 1)" gradientUnits="objectBoundingBox">
      <stop offset="0.338" stop-color="#f77e06"/>
      <stop offset="0.739" stop-color="#d76f07"/>
      <stop offset="1" stop-color="#c16508"/>
    </radialGradient>
    <radialGradient id="radial-gradient-2" cx="0.5" cy="0.492" r="0.7" gradientTransform="translate(0.171) scale(0.658 1)" xlink:href="#radial-gradient"/>
    <radialGradient id="radial-gradient-3" cx="0.5" cy="0.493" r="0.697" gradientTransform="translate(0.169) scale(0.662 1)" xlink:href="#radial-gradient"/>
    <radialGradient id="radial-gradient-4" cx="0.5" cy="0.491" r="0.701" gradientTransform="translate(0.172) scale(0.656 1)" xlink:href="#radial-gradient"/>
    <radialGradient id="radial-gradient-5" cx="0.514" cy="0.479" r="0.653" gradientTransform="translate(0.149) scale(0.702 1)" gradientUnits="objectBoundingBox">
      <stop offset="0" stop-color="#f77e06"/>
      <stop offset="0.338" stop-color="#f28705"/>
      <stop offset="0.739" stop-color="#d76f07"/>
      <stop offset="1" stop-color="#c16508"/>
    </radialGradient>
  </defs>
  <g id="back-white-home" transform="translate(110.387 -7944.307)">
    <g id="Group_42004" data-name="Group 42004" transform="matrix(0.848, -0.53, 0.53, 0.848, -5063.004, 1402.795)" opacity="0.07">
      <path id="Path_3736" data-name="Path 3736" d="M287.467,71.27a39.092,39.092,0,0,1,6.04,7.961,29.648,29.648,0,0,1,3.289,9.961c1.069,7.217-1.036,14.832-4.608,21.109a63.3,63.3,0,0,1-13.731,16.286A79.751,79.751,0,0,1,270.073,133l-2.268,1.459-2.27,1.347-4.241,2.443a574.241,574.241,0,0,1-70.485,33.709q-9.075,3.574-18.193,7c-6.112,2.2-12.213,4.416-18.358,6.493-12.32,4.124-24.5,8.074-36.889,11.772q-9.269,2.792-18.609,5.4l-9.313,2.572a40.779,40.779,0,0,0-7.911,2.835,18.257,18.257,0,0,0-6.043,4.787,22.335,22.335,0,0,0-4.014,7.28,19.054,19.054,0,0,0-.888,8.571,18.213,18.213,0,0,0,3.734,8.471,18.273,18.273,0,0,1-6.835-7.471A22.012,22.012,0,0,1,65.559,219.1a27.6,27.6,0,0,1,2.758-10.713,27.074,27.074,0,0,1,7.229-9.086,48.673,48.673,0,0,1,9.382-5.744c2.978-1.474,5.875-2.775,8.82-4.172q8.806-4.1,17.686-8.019c11.806-5.246,23.825-10.244,35.707-15.057L182.8,151.978c23.755-9.507,47.434-19.014,71.045-28.87l4.43-1.847,2.043-.84,1.957-.895c2.629-1.265,5.237-2.7,7.76-4.234a59.735,59.735,0,0,0,13.488-10.973,28.12,28.12,0,0,0,7.3-15.019,28.216,28.216,0,0,0-.354-8.94A46.313,46.313,0,0,0,287.467,71.27Z" transform="translate(603.034 8204.791)" fill="url(#radial-gradient)"/>
      <path id="Path_3737" data-name="Path 3737" d="M268.916,101.369c3.05.225,5.93,2.151,8.057,4.6a18.4,18.4,0,0,1,4.115,9.112,20,20,0,0,1-1.177,10.569,22.953,22.953,0,0,1-6.591,8.78,68.735,68.735,0,0,1-7.954,5.519l-7.6,4.682q-7.647,4.607-15.483,8.887a556.486,556.486,0,0,1-64.639,29.848L161,189.583c-5.581,1.945-11.181,3.928-16.76,5.772-11.148,3.7-22.339,7.28-33.645,10.574q-8.472,2.5-17.016,4.808c-5.918,1.634-10.7,2.7-14.413,5.351-7.246,5.06-12.569,17.758-4.71,27.5a18.41,18.41,0,0,1-6.629-6.483,20.383,20.383,0,0,1-2.651-9.509,27.5,27.5,0,0,1,6.749-19.219,33.639,33.639,0,0,1,8.289-6.622c2.962-1.727,5.72-2.969,8.342-4.244q8.006-3.8,16.083-7.426c10.763-4.859,21.636-9.433,32.554-13.894l16.322-6.509,16.322-6.38,65.354-25.1,16.4-6.241,8.22-3.122a70.673,70.673,0,0,0,7.459-3.026,14.559,14.559,0,0,0,5.227-4.084,13.789,13.789,0,0,0,2.627-6.457,15.125,15.125,0,0,0-.895-7.591A11.661,11.661,0,0,0,268.916,101.369Z" transform="translate(602.519 8246.699)" fill="url(#radial-gradient-2)"/>
      <path id="Path_3738" data-name="Path 3738" d="M269.047,120.611c3.064.232,5.962,2.175,8.091,4.643a18.43,18.43,0,0,1,4.081,9.189,19.91,19.91,0,0,1-1.273,10.622,23.152,23.152,0,0,1-6.7,8.746,73.37,73.37,0,0,1-7.985,5.493c-2.533,1.6-5.093,3.151-7.655,4.7q-7.7,4.629-15.581,8.926a559.811,559.811,0,0,1-65.048,29.98l-16.741,6.249c-5.61,1.957-11.258,3.947-16.853,5.8-11.215,3.72-22.473,7.328-33.846,10.648q-8.519,2.515-17.114,4.847c-5.861,1.593-10.366,2.787-13.913,5.662a21.312,21.312,0,0,0-7.28,12.586,16.044,16.044,0,0,0,.373,7.782,20.462,20.462,0,0,0,4.3,7.421,19.834,19.834,0,0,1-7.189-5.926,19.207,19.207,0,0,1-3.481-9.354,27.715,27.715,0,0,1,5.521-19.705,31.784,31.784,0,0,1,8.1-7.2,85.585,85.585,0,0,1,8.538-4.5q8.056-3.822,16.184-7.461c10.827-4.885,21.77-9.483,32.752-13.968l16.43-6.548,16.428-6.4,65.756-25.229,16.5-6.282,8.268-3.143a77.142,77.142,0,0,0,7.557-3.045,14.8,14.8,0,0,0,5.311-4.076,13.653,13.653,0,0,0,2.679-6.471,15.115,15.115,0,0,0-.866-7.641A11.7,11.7,0,0,0,269.047,120.611Z" transform="translate(602.388 8273.487)" fill="url(#radial-gradient-3)"/>
      <path id="Path_3739" data-name="Path 3739" d="M270.545,140.268c3.043.22,5.916,2.139,8.045,4.572a18.465,18.465,0,0,1,4.129,9.081,20.071,20.071,0,0,1-1.136,10.543,22.92,22.92,0,0,1-6.543,8.8,66.695,66.695,0,0,1-7.94,5.531l-7.583,4.672q-7.625,4.6-15.437,8.868a553.766,553.766,0,0,1-64.459,29.791q-8.282,3.165-16.593,6.21c-5.569,1.94-11.15,3.921-16.719,5.761-11.119,3.684-22.284,7.258-33.559,10.543q-8.451,2.487-16.971,4.792c-5.914,1.636-10.839,2.689-14.61,5.218a20.91,20.91,0,0,0-8.32,11.729,17.3,17.3,0,0,0,2.689,15.607,18.01,18.01,0,0,1-6.359-6.72,20.993,20.993,0,0,1-2.294-9.552,27.357,27.357,0,0,1,7.258-18.975,35.314,35.314,0,0,1,8.351-6.387c2.945-1.663,5.627-2.868,8.26-4.148q7.981-3.8,16.04-7.411c10.732-4.849,21.578-9.411,32.465-13.861l16.275-6.495,16.277-6.366,65.179-25.042,16.356-6.225,8.2-3.115a68.06,68.06,0,0,0,7.416-3.019,14.483,14.483,0,0,0,5.189-4.084,13.838,13.838,0,0,0,2.6-6.452,15.128,15.128,0,0,0-.907-7.569A11.647,11.647,0,0,0,270.545,140.268Z" transform="translate(604.925 8300.854)" fill="url(#radial-gradient-4)"/>
      <path id="Path_3740" data-name="Path 3740" d="M272.391,162.2c3.935.507,7.308,3.569,9.385,7.172a19.658,19.658,0,0,1,2.06,12.622c-.6,4.543-3.471,8.813-6.823,11.732a40.979,40.979,0,0,1-5.186,3.866l-4.966,3.1c-13.162,8.064-26.726,15.449-40.508,22.375-27.571,13.787-56.206,25.523-84.9,36.023l-21.494,7.806-21.6,7.533A77.665,77.665,0,0,0,89,277.971a18.863,18.863,0,0,0-3.043,1.911,12.435,12.435,0,0,0-2.306,2.316c-2.885,3.687-4.033,9.473-2.658,12.679a13.406,13.406,0,0,0,4.5,5.478c.565.426,1.227.89,1.806,1.263a9.351,9.351,0,0,0,1.493.8c.452.273,1.2.421,1.787.682.651.194,1.349.335,2.036.514,5.768,1.048,12.916-.017,19.832-1.924,14.081-3.82,27.717-10.918,41.5-17.834-11.033,10.794-23.258,20.528-37.755,27.721-7.327,3.387-15.356,6.351-24.908,6.124a31.115,31.115,0,0,1-7.359-1.17,24.361,24.361,0,0,1-3.78-1.416c-1.105-.526-2.084-1.04-3.131-1.639A28.928,28.928,0,0,1,65.9,302.552,27.914,27.914,0,0,1,62.8,286.4a34.144,34.144,0,0,1,5.062-14.746,32,32,0,0,1,5.2-6.3,34.893,34.893,0,0,1,6.316-4.66,57.438,57.438,0,0,1,6.253-3.1c1.978-.854,3.7-1.536,5.481-2.251l21.392-8.356L134,238.9c28.7-10.478,57.175-20.583,85.6-31.293q21.322-7.97,42.577-16.327c3.665-1.428,7.122-2.562,9.83-4.174a13.925,13.925,0,0,0,6.1-6.655,15.273,15.273,0,0,0,.682-9.835A12.593,12.593,0,0,0,272.391,162.2Z" transform="translate(599.043 8331.387)" fill="url(#radial-gradient-5)"/>
    </g>
    <g id="Group_42008" data-name="Group 42008" transform="translate(-4936.727 3525.408) rotate(-48)" opacity="0.07">
      <path id="Path_3736-2" data-name="Path 3736" d="M287.467,71.27a39.092,39.092,0,0,1,6.04,7.961,29.648,29.648,0,0,1,3.289,9.961c1.069,7.217-1.036,14.832-4.608,21.109a63.3,63.3,0,0,1-13.731,16.286A79.751,79.751,0,0,1,270.073,133l-2.268,1.459-2.27,1.347-4.241,2.443a574.241,574.241,0,0,1-70.485,33.709q-9.075,3.574-18.193,7c-6.112,2.2-12.213,4.416-18.358,6.493-12.32,4.124-24.5,8.074-36.889,11.772q-9.269,2.792-18.609,5.4l-9.313,2.572a40.779,40.779,0,0,0-7.911,2.835,18.257,18.257,0,0,0-6.043,4.787,22.335,22.335,0,0,0-4.014,7.28,19.054,19.054,0,0,0-.888,8.571,18.213,18.213,0,0,0,3.734,8.471,18.273,18.273,0,0,1-6.835-7.471A22.012,22.012,0,0,1,65.559,219.1a27.6,27.6,0,0,1,2.758-10.713,27.074,27.074,0,0,1,7.229-9.086,48.673,48.673,0,0,1,9.382-5.744c2.978-1.474,5.875-2.775,8.82-4.172q8.806-4.1,17.686-8.019c11.806-5.246,23.825-10.244,35.707-15.057L182.8,151.978c23.755-9.507,47.434-19.014,71.045-28.87l4.43-1.847,2.043-.84,1.957-.895c2.629-1.265,5.237-2.7,7.76-4.234a59.735,59.735,0,0,0,13.488-10.973,28.12,28.12,0,0,0,7.3-15.019,28.216,28.216,0,0,0-.354-8.94A46.313,46.313,0,0,0,287.467,71.27Z" transform="translate(603.034 8204.791)" fill="url(#radial-gradient)"/>
      <path id="Path_3737-2" data-name="Path 3737" d="M268.916,101.369c3.05.225,5.93,2.151,8.057,4.6a18.4,18.4,0,0,1,4.115,9.112,20,20,0,0,1-1.177,10.569,22.953,22.953,0,0,1-6.591,8.78,68.735,68.735,0,0,1-7.954,5.519l-7.6,4.682q-7.647,4.607-15.483,8.887a556.486,556.486,0,0,1-64.639,29.848L161,189.583c-5.581,1.945-11.181,3.928-16.76,5.772-11.148,3.7-22.339,7.28-33.645,10.574q-8.472,2.5-17.016,4.808c-5.918,1.634-10.7,2.7-14.413,5.351-7.246,5.06-12.569,17.758-4.71,27.5a18.41,18.41,0,0,1-6.629-6.483,20.383,20.383,0,0,1-2.651-9.509,27.5,27.5,0,0,1,6.749-19.219,33.639,33.639,0,0,1,8.289-6.622c2.962-1.727,5.72-2.969,8.342-4.244q8.006-3.8,16.083-7.426c10.763-4.859,21.636-9.433,32.554-13.894l16.322-6.509,16.322-6.38,65.354-25.1,16.4-6.241,8.22-3.122a70.673,70.673,0,0,0,7.459-3.026,14.559,14.559,0,0,0,5.227-4.084,13.789,13.789,0,0,0,2.627-6.457,15.125,15.125,0,0,0-.895-7.591A11.661,11.661,0,0,0,268.916,101.369Z" transform="translate(602.519 8246.699)" fill="url(#radial-gradient-2)"/>
      <path id="Path_3738-2" data-name="Path 3738" d="M269.047,120.611c3.064.232,5.962,2.175,8.091,4.643a18.43,18.43,0,0,1,4.081,9.189,19.91,19.91,0,0,1-1.273,10.622,23.152,23.152,0,0,1-6.7,8.746,73.37,73.37,0,0,1-7.985,5.493c-2.533,1.6-5.093,3.151-7.655,4.7q-7.7,4.629-15.581,8.926a559.811,559.811,0,0,1-65.048,29.98l-16.741,6.249c-5.61,1.957-11.258,3.947-16.853,5.8-11.215,3.72-22.473,7.328-33.846,10.648q-8.519,2.515-17.114,4.847c-5.861,1.593-10.366,2.787-13.913,5.662a21.312,21.312,0,0,0-7.28,12.586,16.044,16.044,0,0,0,.373,7.782,20.462,20.462,0,0,0,4.3,7.421,19.834,19.834,0,0,1-7.189-5.926,19.207,19.207,0,0,1-3.481-9.354,27.715,27.715,0,0,1,5.521-19.705,31.784,31.784,0,0,1,8.1-7.2,85.585,85.585,0,0,1,8.538-4.5q8.056-3.822,16.184-7.461c10.827-4.885,21.77-9.483,32.752-13.968l16.43-6.548,16.428-6.4,65.756-25.229,16.5-6.282,8.268-3.143a77.142,77.142,0,0,0,7.557-3.045,14.8,14.8,0,0,0,5.311-4.076,13.653,13.653,0,0,0,2.679-6.471,15.115,15.115,0,0,0-.866-7.641A11.7,11.7,0,0,0,269.047,120.611Z" transform="translate(602.388 8273.487)" fill="url(#radial-gradient-3)"/>
      <path id="Path_3739-2" data-name="Path 3739" d="M270.545,140.268c3.043.22,5.916,2.139,8.045,4.572a18.465,18.465,0,0,1,4.129,9.081,20.071,20.071,0,0,1-1.136,10.543,22.92,22.92,0,0,1-6.543,8.8,66.695,66.695,0,0,1-7.94,5.531l-7.583,4.672q-7.625,4.6-15.437,8.868a553.766,553.766,0,0,1-64.459,29.791q-8.282,3.165-16.593,6.21c-5.569,1.94-11.15,3.921-16.719,5.761-11.119,3.684-22.284,7.258-33.559,10.543q-8.451,2.487-16.971,4.792c-5.914,1.636-10.839,2.689-14.61,5.218a20.91,20.91,0,0,0-8.32,11.729,17.3,17.3,0,0,0,2.689,15.607,18.01,18.01,0,0,1-6.359-6.72,20.993,20.993,0,0,1-2.294-9.552,27.357,27.357,0,0,1,7.258-18.975,35.314,35.314,0,0,1,8.351-6.387c2.945-1.663,5.627-2.868,8.26-4.148q7.981-3.8,16.04-7.411c10.732-4.849,21.578-9.411,32.465-13.861l16.275-6.495,16.277-6.366,65.179-25.042,16.356-6.225,8.2-3.115a68.06,68.06,0,0,0,7.416-3.019,14.483,14.483,0,0,0,5.189-4.084,13.838,13.838,0,0,0,2.6-6.452,15.128,15.128,0,0,0-.907-7.569A11.647,11.647,0,0,0,270.545,140.268Z" transform="translate(604.925 8300.854)" fill="url(#radial-gradient-4)"/>
      <path id="Path_3740-2" data-name="Path 3740" d="M272.391,162.2c3.935.507,7.308,3.569,9.385,7.172a19.658,19.658,0,0,1,2.06,12.622c-.6,4.543-3.471,8.813-6.823,11.732a40.979,40.979,0,0,1-5.186,3.866l-4.966,3.1c-13.162,8.064-26.726,15.449-40.508,22.375-27.571,13.787-56.206,25.523-84.9,36.023l-21.494,7.806-21.6,7.533A77.665,77.665,0,0,0,89,277.971a18.863,18.863,0,0,0-3.043,1.911,12.435,12.435,0,0,0-2.306,2.316c-2.885,3.687-4.033,9.473-2.658,12.679a13.406,13.406,0,0,0,4.5,5.478c.565.426,1.227.89,1.806,1.263a9.351,9.351,0,0,0,1.493.8c.452.273,1.2.421,1.787.682.651.194,1.349.335,2.036.514,5.768,1.048,12.916-.017,19.832-1.924,14.081-3.82,27.717-10.918,41.5-17.834-11.033,10.794-23.258,20.528-37.755,27.721-7.327,3.387-15.356,6.351-24.908,6.124a31.115,31.115,0,0,1-7.359-1.17,24.361,24.361,0,0,1-3.78-1.416c-1.105-.526-2.084-1.04-3.131-1.639A28.928,28.928,0,0,1,65.9,302.552,27.914,27.914,0,0,1,62.8,286.4a34.144,34.144,0,0,1,5.062-14.746,32,32,0,0,1,5.2-6.3,34.893,34.893,0,0,1,6.316-4.66,57.438,57.438,0,0,1,6.253-3.1c1.978-.854,3.7-1.536,5.481-2.251l21.392-8.356L134,238.9c28.7-10.478,57.175-20.583,85.6-31.293q21.322-7.97,42.577-16.327c3.665-1.428,7.122-2.562,9.83-4.174a13.925,13.925,0,0,0,6.1-6.655,15.273,15.273,0,0,0,.682-9.835A12.593,12.593,0,0,0,272.391,162.2Z" transform="translate(599.043 8331.387)" fill="url(#radial-gradient-5)"/>
    </g>
    <g id="Group_42005" data-name="Group 42005" transform="matrix(0.883, -0.469, 0.469, 0.883, -4134.627, 1271.14)" opacity="0.07">
      <path id="Path_3736-3" data-name="Path 3736" d="M108.553,71.27a7.579,7.579,0,0,1,1.171,1.543,5.748,5.748,0,0,1,.638,1.931,6.543,6.543,0,0,1-.893,4.092,12.271,12.271,0,0,1-2.662,3.157,15.462,15.462,0,0,1-1.626,1.243l-.44.283-.44.261-.822.474A111.328,111.328,0,0,1,89.814,90.79q-1.759.693-3.527,1.357c-1.185.427-2.368.856-3.559,1.259-2.388.8-4.749,1.565-7.151,2.282q-1.8.541-3.608,1.046l-1.805.5a7.906,7.906,0,0,0-1.534.55,3.54,3.54,0,0,0-1.172.928,4.33,4.33,0,0,0-.778,1.411,3.694,3.694,0,0,0-.172,1.662,3.531,3.531,0,0,0,.724,1.642,3.542,3.542,0,0,1-1.325-1.448,4.267,4.267,0,0,1-.374-2.048,5.35,5.35,0,0,1,.535-2.077,5.249,5.249,0,0,1,1.4-1.761,9.436,9.436,0,0,1,1.819-1.114c.577-.286,1.139-.538,1.71-.809q1.707-.8,3.429-1.555c2.289-1.017,4.619-1.986,6.922-2.919l6.914-2.778c4.605-1.843,9.2-3.686,13.773-5.6l.859-.358.4-.163.379-.173c.51-.245,1.015-.524,1.5-.821a11.581,11.581,0,0,0,2.615-2.127,5.118,5.118,0,0,0,1.347-4.645A8.978,8.978,0,0,0,108.553,71.27Z" transform="translate(597.505 8204.791)" fill="url(#radial-gradient)"/>
      <path id="Path_3737-3" data-name="Path 3737" d="M104.657,101.369a2.416,2.416,0,0,1,1.562.891,3.566,3.566,0,0,1,.8,1.767,3.877,3.877,0,0,1-.228,2.049,4.45,4.45,0,0,1-1.278,1.7,13.324,13.324,0,0,1-1.542,1.07l-1.474.908q-1.482.893-3,1.723a107.884,107.884,0,0,1-12.531,5.787l-3.226,1.206c-1.082.377-2.168.762-3.249,1.119-2.161.717-4.331,1.411-6.523,2.05q-1.642.484-3.3.932a8.871,8.871,0,0,0-2.794,1.037,3.771,3.771,0,0,0-.913,5.331,3.569,3.569,0,0,1-1.285-1.257,3.952,3.952,0,0,1-.514-1.844,5.33,5.33,0,0,1,1.308-3.726,6.521,6.521,0,0,1,1.607-1.284c.574-.335,1.109-.576,1.617-.823q1.552-.737,3.118-1.44c2.087-.942,4.194-1.829,6.311-2.694l3.164-1.262,3.164-1.237,12.67-4.866,3.179-1.21,1.594-.605a13.7,13.7,0,0,0,1.446-.587,2.823,2.823,0,0,0,1.013-.792,2.673,2.673,0,0,0,.509-1.252,2.932,2.932,0,0,0-.173-1.472A2.261,2.261,0,0,0,104.657,101.369Z" transform="translate(597.705 8188.651)" fill="url(#radial-gradient-2)"/>
      <path id="Path_3738-3" data-name="Path 3738" d="M104.607,120.611a2.424,2.424,0,0,1,1.568.9,3.573,3.573,0,0,1,.791,1.781,3.86,3.86,0,0,1-.247,2.059,4.488,4.488,0,0,1-1.3,1.7,14.222,14.222,0,0,1-1.548,1.065c-.491.31-.987.611-1.484.912q-1.492.9-3.021,1.73a108.529,108.529,0,0,1-12.611,5.812l-3.246,1.211c-1.088.379-2.183.765-3.267,1.125-2.174.721-4.357,1.421-6.562,2.064q-1.652.488-3.318.94a7.108,7.108,0,0,0-2.7,1.1,4.132,4.132,0,0,0-1.411,2.44,3.11,3.11,0,0,0,.072,1.509,3.967,3.967,0,0,0,.833,1.439,3.845,3.845,0,0,1-1.394-1.149,3.724,3.724,0,0,1-.675-1.813,5.373,5.373,0,0,1,1.07-3.82,6.162,6.162,0,0,1,1.571-1.4,16.588,16.588,0,0,1,1.655-.872q1.562-.741,3.137-1.447c2.1-.947,4.22-1.838,6.35-2.708l3.185-1.269,3.185-1.242,12.748-4.891,3.2-1.218,1.6-.609a14.958,14.958,0,0,0,1.465-.59,2.869,2.869,0,0,0,1.03-.79,2.647,2.647,0,0,0,.519-1.255,2.93,2.93,0,0,0-.168-1.481A2.267,2.267,0,0,0,104.607,120.611Z" transform="translate(597.755 8178.333)" fill="url(#radial-gradient-3)"/>
      <path id="Path_3739-3" data-name="Path 3739" d="M106.366,140.268a2.414,2.414,0,0,1,1.56.886,3.58,3.58,0,0,1,.8,1.761,3.891,3.891,0,0,1-.22,2.044,4.443,4.443,0,0,1-1.268,1.705,12.932,12.932,0,0,1-1.539,1.072l-1.47.906q-1.478.891-2.993,1.719a107.354,107.354,0,0,1-12.5,5.775q-1.606.614-3.217,1.2c-1.08.376-2.162.76-3.241,1.117-2.156.714-4.32,1.407-6.506,2.044q-1.638.482-3.29.929a9.949,9.949,0,0,0-2.832,1.012,4.054,4.054,0,0,0-1.613,2.274,3.355,3.355,0,0,0,.521,3.026,3.492,3.492,0,0,1-1.233-1.3,4.07,4.07,0,0,1-.445-1.852,5.3,5.3,0,0,1,1.407-3.679,6.846,6.846,0,0,1,1.619-1.238c.571-.322,1.091-.556,1.6-.8q1.547-.736,3.11-1.437c2.081-.94,4.183-1.824,6.294-2.687l3.155-1.259,3.156-1.234,12.636-4.855,3.171-1.207,1.589-.6a13.2,13.2,0,0,0,1.438-.585,2.808,2.808,0,0,0,1.006-.792,2.683,2.683,0,0,0,.5-1.251,2.933,2.933,0,0,0-.176-1.467A2.258,2.258,0,0,0,106.366,140.268Z" transform="translate(596.778 8167.792)" fill="url(#radial-gradient-4)"/>
      <path id="Path_3740-3" data-name="Path 3740" d="M103.319,162.2a2.642,2.642,0,0,1,1.819,1.39,3.786,3.786,0,0,1-.923,4.721,7.946,7.946,0,0,1-1.005.749l-.963.6c-2.552,1.563-5.181,3-7.853,4.338a158.788,158.788,0,0,1-16.459,6.984L73.767,182.5l-4.187,1.46a15.058,15.058,0,0,0-1.815.687,3.658,3.658,0,0,0-.59.371,2.41,2.41,0,0,0-.447.449,2.8,2.8,0,0,0-.515,2.458,2.6,2.6,0,0,0,.873,1.062c.109.083.238.173.35.245a1.811,1.811,0,0,0,.289.155c.088.053.232.082.346.132s.262.065.395.1a9.143,9.143,0,0,0,3.845-.373,44.59,44.59,0,0,0,8.045-3.457,28.806,28.806,0,0,1-7.319,5.374,10.653,10.653,0,0,1-4.829,1.187,6.034,6.034,0,0,1-1.427-.227,4.726,4.726,0,0,1-.733-.275c-.214-.1-.4-.2-.607-.318a5.608,5.608,0,0,1-2.154-2.119,5.412,5.412,0,0,1-.6-3.131,6.619,6.619,0,0,1,.981-2.859,6.2,6.2,0,0,1,1.007-1.222,6.766,6.766,0,0,1,1.224-.9,11.141,11.141,0,0,1,1.212-.6c.384-.166.717-.3,1.063-.436l4.147-1.62,4.167-1.567c5.564-2.031,11.084-3.99,16.6-6.067q4.134-1.545,8.254-3.165a13.537,13.537,0,0,0,1.906-.809,2.7,2.7,0,0,0,1.183-1.29,2.961,2.961,0,0,0,.132-1.907A2.441,2.441,0,0,0,103.319,162.2Z" transform="translate(599.043 8156.033)" fill="url(#radial-gradient-5)"/>
    </g>
    <g id="Group_42006" data-name="Group 42006" transform="matrix(0.883, -0.469, 0.469, 0.883, -4134.627, 1422.14)" opacity="0.07">
      <path id="Path_3736-4" data-name="Path 3736" d="M108.553,71.27a7.579,7.579,0,0,1,1.171,1.543,5.748,5.748,0,0,1,.638,1.931,6.543,6.543,0,0,1-.893,4.092,12.271,12.271,0,0,1-2.662,3.157,15.462,15.462,0,0,1-1.626,1.243l-.44.283-.44.261-.822.474A111.328,111.328,0,0,1,89.814,90.79q-1.759.693-3.527,1.357c-1.185.427-2.368.856-3.559,1.259-2.388.8-4.749,1.565-7.151,2.282q-1.8.541-3.608,1.046l-1.805.5a7.906,7.906,0,0,0-1.534.55,3.54,3.54,0,0,0-1.172.928,4.33,4.33,0,0,0-.778,1.411,3.694,3.694,0,0,0-.172,1.662,3.531,3.531,0,0,0,.724,1.642,3.542,3.542,0,0,1-1.325-1.448,4.267,4.267,0,0,1-.374-2.048,5.35,5.35,0,0,1,.535-2.077,5.249,5.249,0,0,1,1.4-1.761,9.436,9.436,0,0,1,1.819-1.114c.577-.286,1.139-.538,1.71-.809q1.707-.8,3.429-1.555c2.289-1.017,4.619-1.986,6.922-2.919l6.914-2.778c4.605-1.843,9.2-3.686,13.773-5.6l.859-.358.4-.163.379-.173c.51-.245,1.015-.524,1.5-.821a11.581,11.581,0,0,0,2.615-2.127,5.118,5.118,0,0,0,1.347-4.645A8.978,8.978,0,0,0,108.553,71.27Z" transform="translate(597.505 8204.791)" fill="url(#radial-gradient)"/>
      <path id="Path_3737-4" data-name="Path 3737" d="M104.657,101.369a2.416,2.416,0,0,1,1.562.891,3.566,3.566,0,0,1,.8,1.767,3.877,3.877,0,0,1-.228,2.049,4.45,4.45,0,0,1-1.278,1.7,13.324,13.324,0,0,1-1.542,1.07l-1.474.908q-1.482.893-3,1.723a107.884,107.884,0,0,1-12.531,5.787l-3.226,1.206c-1.082.377-2.168.762-3.249,1.119-2.161.717-4.331,1.411-6.523,2.05q-1.642.484-3.3.932a8.871,8.871,0,0,0-2.794,1.037,3.771,3.771,0,0,0-.913,5.331,3.569,3.569,0,0,1-1.285-1.257,3.952,3.952,0,0,1-.514-1.844,5.33,5.33,0,0,1,1.308-3.726,6.521,6.521,0,0,1,1.607-1.284c.574-.335,1.109-.576,1.617-.823q1.552-.737,3.118-1.44c2.087-.942,4.194-1.829,6.311-2.694l3.164-1.262,3.164-1.237,12.67-4.866,3.179-1.21,1.594-.605a13.7,13.7,0,0,0,1.446-.587,2.823,2.823,0,0,0,1.013-.792,2.673,2.673,0,0,0,.509-1.252,2.932,2.932,0,0,0-.173-1.472A2.261,2.261,0,0,0,104.657,101.369Z" transform="translate(597.705 8188.651)" fill="url(#radial-gradient-2)"/>
      <path id="Path_3738-4" data-name="Path 3738" d="M104.607,120.611a2.424,2.424,0,0,1,1.568.9,3.573,3.573,0,0,1,.791,1.781,3.86,3.86,0,0,1-.247,2.059,4.488,4.488,0,0,1-1.3,1.7,14.222,14.222,0,0,1-1.548,1.065c-.491.31-.987.611-1.484.912q-1.492.9-3.021,1.73a108.529,108.529,0,0,1-12.611,5.812l-3.246,1.211c-1.088.379-2.183.765-3.267,1.125-2.174.721-4.357,1.421-6.562,2.064q-1.652.488-3.318.94a7.108,7.108,0,0,0-2.7,1.1,4.132,4.132,0,0,0-1.411,2.44,3.11,3.11,0,0,0,.072,1.509,3.967,3.967,0,0,0,.833,1.439,3.845,3.845,0,0,1-1.394-1.149,3.724,3.724,0,0,1-.675-1.813,5.373,5.373,0,0,1,1.07-3.82,6.162,6.162,0,0,1,1.571-1.4,16.588,16.588,0,0,1,1.655-.872q1.562-.741,3.137-1.447c2.1-.947,4.22-1.838,6.35-2.708l3.185-1.269,3.185-1.242,12.748-4.891,3.2-1.218,1.6-.609a14.958,14.958,0,0,0,1.465-.59,2.869,2.869,0,0,0,1.03-.79,2.647,2.647,0,0,0,.519-1.255,2.93,2.93,0,0,0-.168-1.481A2.267,2.267,0,0,0,104.607,120.611Z" transform="translate(597.755 8178.333)" fill="url(#radial-gradient-3)"/>
      <path id="Path_3739-4" data-name="Path 3739" d="M106.366,140.268a2.414,2.414,0,0,1,1.56.886,3.58,3.58,0,0,1,.8,1.761,3.891,3.891,0,0,1-.22,2.044,4.443,4.443,0,0,1-1.268,1.705,12.932,12.932,0,0,1-1.539,1.072l-1.47.906q-1.478.891-2.993,1.719a107.354,107.354,0,0,1-12.5,5.775q-1.606.614-3.217,1.2c-1.08.376-2.162.76-3.241,1.117-2.156.714-4.32,1.407-6.506,2.044q-1.638.482-3.29.929a9.949,9.949,0,0,0-2.832,1.012,4.054,4.054,0,0,0-1.613,2.274,3.355,3.355,0,0,0,.521,3.026,3.492,3.492,0,0,1-1.233-1.3,4.07,4.07,0,0,1-.445-1.852,5.3,5.3,0,0,1,1.407-3.679,6.846,6.846,0,0,1,1.619-1.238c.571-.322,1.091-.556,1.6-.8q1.547-.736,3.11-1.437c2.081-.94,4.183-1.824,6.294-2.687l3.155-1.259,3.156-1.234,12.636-4.855,3.171-1.207,1.589-.6a13.2,13.2,0,0,0,1.438-.585,2.808,2.808,0,0,0,1.006-.792,2.683,2.683,0,0,0,.5-1.251,2.933,2.933,0,0,0-.176-1.467A2.258,2.258,0,0,0,106.366,140.268Z" transform="translate(596.778 8167.792)" fill="url(#radial-gradient-4)"/>
      <path id="Path_3740-4" data-name="Path 3740" d="M103.319,162.2a2.642,2.642,0,0,1,1.819,1.39,3.786,3.786,0,0,1-.923,4.721,7.946,7.946,0,0,1-1.005.749l-.963.6c-2.552,1.563-5.181,3-7.853,4.338a158.788,158.788,0,0,1-16.459,6.984L73.767,182.5l-4.187,1.46a15.058,15.058,0,0,0-1.815.687,3.658,3.658,0,0,0-.59.371,2.41,2.41,0,0,0-.447.449,2.8,2.8,0,0,0-.515,2.458,2.6,2.6,0,0,0,.873,1.062c.109.083.238.173.35.245a1.811,1.811,0,0,0,.289.155c.088.053.232.082.346.132s.262.065.395.1a9.143,9.143,0,0,0,3.845-.373,44.59,44.59,0,0,0,8.045-3.457,28.806,28.806,0,0,1-7.319,5.374,10.653,10.653,0,0,1-4.829,1.187,6.034,6.034,0,0,1-1.427-.227,4.726,4.726,0,0,1-.733-.275c-.214-.1-.4-.2-.607-.318a5.608,5.608,0,0,1-2.154-2.119,5.412,5.412,0,0,1-.6-3.131,6.619,6.619,0,0,1,.981-2.859,6.2,6.2,0,0,1,1.007-1.222,6.766,6.766,0,0,1,1.224-.9,11.141,11.141,0,0,1,1.212-.6c.384-.166.717-.3,1.063-.436l4.147-1.62,4.167-1.567c5.564-2.031,11.084-3.99,16.6-6.067q4.134-1.545,8.254-3.165a13.537,13.537,0,0,0,1.906-.809,2.7,2.7,0,0,0,1.183-1.29,2.961,2.961,0,0,0,.132-1.907A2.441,2.441,0,0,0,103.319,162.2Z" transform="translate(599.043 8156.033)" fill="url(#radial-gradient-5)"/>
    </g>
    <g id="Group_42007" data-name="Group 42007" transform="matrix(0.883, -0.469, 0.469, 0.883, -4215.627, 1534.14)" opacity="0.07">
      <path id="Path_3736-5" data-name="Path 3736" d="M108.553,71.27a7.579,7.579,0,0,1,1.171,1.543,5.748,5.748,0,0,1,.638,1.931,6.543,6.543,0,0,1-.893,4.092,12.271,12.271,0,0,1-2.662,3.157,15.462,15.462,0,0,1-1.626,1.243l-.44.283-.44.261-.822.474A111.328,111.328,0,0,1,89.814,90.79q-1.759.693-3.527,1.357c-1.185.427-2.368.856-3.559,1.259-2.388.8-4.749,1.565-7.151,2.282q-1.8.541-3.608,1.046l-1.805.5a7.906,7.906,0,0,0-1.534.55,3.54,3.54,0,0,0-1.172.928,4.33,4.33,0,0,0-.778,1.411,3.694,3.694,0,0,0-.172,1.662,3.531,3.531,0,0,0,.724,1.642,3.542,3.542,0,0,1-1.325-1.448,4.267,4.267,0,0,1-.374-2.048,5.35,5.35,0,0,1,.535-2.077,5.249,5.249,0,0,1,1.4-1.761,9.436,9.436,0,0,1,1.819-1.114c.577-.286,1.139-.538,1.71-.809q1.707-.8,3.429-1.555c2.289-1.017,4.619-1.986,6.922-2.919l6.914-2.778c4.605-1.843,9.2-3.686,13.773-5.6l.859-.358.4-.163.379-.173c.51-.245,1.015-.524,1.5-.821a11.581,11.581,0,0,0,2.615-2.127,5.118,5.118,0,0,0,1.347-4.645A8.978,8.978,0,0,0,108.553,71.27Z" transform="translate(597.505 8204.791)" fill="url(#radial-gradient)"/>
      <path id="Path_3737-5" data-name="Path 3737" d="M104.657,101.369a2.416,2.416,0,0,1,1.562.891,3.566,3.566,0,0,1,.8,1.767,3.877,3.877,0,0,1-.228,2.049,4.45,4.45,0,0,1-1.278,1.7,13.324,13.324,0,0,1-1.542,1.07l-1.474.908q-1.482.893-3,1.723a107.884,107.884,0,0,1-12.531,5.787l-3.226,1.206c-1.082.377-2.168.762-3.249,1.119-2.161.717-4.331,1.411-6.523,2.05q-1.642.484-3.3.932a8.871,8.871,0,0,0-2.794,1.037,3.771,3.771,0,0,0-.913,5.331,3.569,3.569,0,0,1-1.285-1.257,3.952,3.952,0,0,1-.514-1.844,5.33,5.33,0,0,1,1.308-3.726,6.521,6.521,0,0,1,1.607-1.284c.574-.335,1.109-.576,1.617-.823q1.552-.737,3.118-1.44c2.087-.942,4.194-1.829,6.311-2.694l3.164-1.262,3.164-1.237,12.67-4.866,3.179-1.21,1.594-.605a13.7,13.7,0,0,0,1.446-.587,2.823,2.823,0,0,0,1.013-.792,2.673,2.673,0,0,0,.509-1.252,2.932,2.932,0,0,0-.173-1.472A2.261,2.261,0,0,0,104.657,101.369Z" transform="translate(597.705 8188.651)" fill="url(#radial-gradient-2)"/>
      <path id="Path_3738-5" data-name="Path 3738" d="M104.607,120.611a2.424,2.424,0,0,1,1.568.9,3.573,3.573,0,0,1,.791,1.781,3.86,3.86,0,0,1-.247,2.059,4.488,4.488,0,0,1-1.3,1.7,14.222,14.222,0,0,1-1.548,1.065c-.491.31-.987.611-1.484.912q-1.492.9-3.021,1.73a108.529,108.529,0,0,1-12.611,5.812l-3.246,1.211c-1.088.379-2.183.765-3.267,1.125-2.174.721-4.357,1.421-6.562,2.064q-1.652.488-3.318.94a7.108,7.108,0,0,0-2.7,1.1,4.132,4.132,0,0,0-1.411,2.44,3.11,3.11,0,0,0,.072,1.509,3.967,3.967,0,0,0,.833,1.439,3.845,3.845,0,0,1-1.394-1.149,3.724,3.724,0,0,1-.675-1.813,5.373,5.373,0,0,1,1.07-3.82,6.162,6.162,0,0,1,1.571-1.4,16.588,16.588,0,0,1,1.655-.872q1.562-.741,3.137-1.447c2.1-.947,4.22-1.838,6.35-2.708l3.185-1.269,3.185-1.242,12.748-4.891,3.2-1.218,1.6-.609a14.958,14.958,0,0,0,1.465-.59,2.869,2.869,0,0,0,1.03-.79,2.647,2.647,0,0,0,.519-1.255,2.93,2.93,0,0,0-.168-1.481A2.267,2.267,0,0,0,104.607,120.611Z" transform="translate(597.755 8178.333)" fill="url(#radial-gradient-3)"/>
      <path id="Path_3739-5" data-name="Path 3739" d="M106.366,140.268a2.414,2.414,0,0,1,1.56.886,3.58,3.58,0,0,1,.8,1.761,3.891,3.891,0,0,1-.22,2.044,4.443,4.443,0,0,1-1.268,1.705,12.932,12.932,0,0,1-1.539,1.072l-1.47.906q-1.478.891-2.993,1.719a107.354,107.354,0,0,1-12.5,5.775q-1.606.614-3.217,1.2c-1.08.376-2.162.76-3.241,1.117-2.156.714-4.32,1.407-6.506,2.044q-1.638.482-3.29.929a9.949,9.949,0,0,0-2.832,1.012,4.054,4.054,0,0,0-1.613,2.274,3.355,3.355,0,0,0,.521,3.026,3.492,3.492,0,0,1-1.233-1.3,4.07,4.07,0,0,1-.445-1.852,5.3,5.3,0,0,1,1.407-3.679,6.846,6.846,0,0,1,1.619-1.238c.571-.322,1.091-.556,1.6-.8q1.547-.736,3.11-1.437c2.081-.94,4.183-1.824,6.294-2.687l3.155-1.259,3.156-1.234,12.636-4.855,3.171-1.207,1.589-.6a13.2,13.2,0,0,0,1.438-.585,2.808,2.808,0,0,0,1.006-.792,2.683,2.683,0,0,0,.5-1.251,2.933,2.933,0,0,0-.176-1.467A2.258,2.258,0,0,0,106.366,140.268Z" transform="translate(596.778 8167.792)" fill="url(#radial-gradient-4)"/>
      <path id="Path_3740-5" data-name="Path 3740" d="M103.319,162.2a2.642,2.642,0,0,1,1.819,1.39,3.786,3.786,0,0,1-.923,4.721,7.946,7.946,0,0,1-1.005.749l-.963.6c-2.552,1.563-5.181,3-7.853,4.338a158.788,158.788,0,0,1-16.459,6.984L73.767,182.5l-4.187,1.46a15.058,15.058,0,0,0-1.815.687,3.658,3.658,0,0,0-.59.371,2.41,2.41,0,0,0-.447.449,2.8,2.8,0,0,0-.515,2.458,2.6,2.6,0,0,0,.873,1.062c.109.083.238.173.35.245a1.811,1.811,0,0,0,.289.155c.088.053.232.082.346.132s.262.065.395.1a9.143,9.143,0,0,0,3.845-.373,44.59,44.59,0,0,0,8.045-3.457,28.806,28.806,0,0,1-7.319,5.374,10.653,10.653,0,0,1-4.829,1.187,6.034,6.034,0,0,1-1.427-.227,4.726,4.726,0,0,1-.733-.275c-.214-.1-.4-.2-.607-.318a5.608,5.608,0,0,1-2.154-2.119,5.412,5.412,0,0,1-.6-3.131,6.619,6.619,0,0,1,.981-2.859,6.2,6.2,0,0,1,1.007-1.222,6.766,6.766,0,0,1,1.224-.9,11.141,11.141,0,0,1,1.212-.6c.384-.166.717-.3,1.063-.436l4.147-1.62,4.167-1.567c5.564-2.031,11.084-3.99,16.6-6.067q4.134-1.545,8.254-3.165a13.537,13.537,0,0,0,1.906-.809,2.7,2.7,0,0,0,1.183-1.29,2.961,2.961,0,0,0,.132-1.907A2.441,2.441,0,0,0,103.319,162.2Z" transform="translate(599.043 8156.033)" fill="url(#radial-gradient-5)"/>
    </g>
  </g>
</svg>
