<svg xmlns="http://www.w3.org/2000/svg" width="22.77" height="30" viewBox="0 0 22.77 30">
  <g id="Contests" transform="translate(-10 -3.028)">
    <path id="Path_3067" data-name="Path 3067" d="M28.728,38.216l1.1,7.148h1.182l1.1-7.148-1.693-1.042Z" transform="translate(-9.036 -16.476)" fill="#f28705"/>
    <path id="Path_3068" data-name="Path 3068" d="M29.972,55v.517A1.554,1.554,0,0,1,28.42,57.07H20.14a1.554,1.554,0,0,1-1.552-1.552V55H17.8L16,57.252V58.1H32.56v-.853L30.759,55Z" transform="translate(-2.895 -25.077)" fill="#f28705"/>
    <path id="Path_3069" data-name="Path 3069" d="M37.333,41.036l-1.156-.711-1.011,6.559h1.039Z" transform="translate(-12.143 -17.996)" fill="#f28705"/>
    <path id="Path_3070" data-name="Path 3070" d="M32.594,10.776H24.117L21.575,3.151a.209.209,0,0,0-.381,0l-2.541,7.625H10.176a.176.176,0,0,0-.107.316L16.8,16.273l-2.081,7.283,6.661-4.072,6.641,4.087-2.061-7.3L32.7,11.091a.176.176,0,0,0-.107-.316Zm-8.411,4.909,1.282,4.486-4.08-2.511L17.3,20.171l1.282-4.486-4.363-3.356h5.549l1.613-4.839L23,12.328h5.549Z" fill="#f28705"/>
    <path id="Path_3071" data-name="Path 3071" d="M23,55.517a.518.518,0,0,0,.517.517H31.8a.518.518,0,0,0,.517-.517V55H23Z" transform="translate(-6.273 -25.077)" fill="#f28705"/>
    <path id="Path_3072" data-name="Path 3072" d="M24.647,41.036l1.128,5.848h1.039L25.8,40.325Z" transform="translate(-7.067 -17.996)" fill="#f28705"/>
  </g>
</svg>
