<svg xmlns="http://www.w3.org/2000/svg" width="124.226" height="83.459" viewBox="0 0 124.226 83.459">
  <path id="cotachen" d="M104.651,31.36l3.049-3.37a106.563,106.563,0,0,0-26.322-12.84l-3.21-1.123.642.161Q90.367,2.149,90.367-11.975q0-14.605-20.544-31.137l-1.6-1.284-3.37,3.37,1.765,1.284Q85.231-24.975,85.231-12.135q0,13.482-14.766,27.606A157.841,157.841,0,0,1,104.651,31.36Zm16.05-6.1a56.724,56.724,0,0,0,4.815-22.149q0-39.964-47.508-55.212l-1.284,2.247,1.6,1.444q16.531,13.8,16.531,33.063A35.749,35.749,0,0,1,86.354,8.408q1.926.8,2.889,1.124A139.259,139.259,0,0,1,120.7,25.261Zm-79.607,6.1,3.049-3.37a105.693,105.693,0,0,0-26.482-12.84l-3.049-1.123.642.161q11.556-12.2,11.556-26.161,0-14.605-20.544-31.137L4.661-44.4l-3.37,3.37,1.765,1.284Q21.673-24.975,21.673-12.135q0,13.321-14.766,27.606A162.68,162.68,0,0,1,41.094,31.36Zm16.05-6.1A56.724,56.724,0,0,0,61.959,3.112q0-39.964-47.508-55.212l-1.284,2.247,1.6,1.444Q31.3-34.605,31.3-15.345A35.35,35.35,0,0,1,22.636,8.408q2.086.8,3.049,1.124A139.259,139.259,0,0,1,57.144,25.261Z" transform="translate(-1.29 52.1)" fill="#f28705"/>
</svg>
