<svg xmlns="http://www.w3.org/2000/svg" width="84" height="84" viewBox="0 0 84 84">
  <g id="group-star" transform="translate(6 6)">
    <g id="Group_3017" data-name="Group 3017" transform="translate(-6 -6)">
      <path id="Path_21" data-name="Path 21" d="M157.663-6a4.337,4.337,0,0,1,1.992,2.345c1.091,2.381,2.263,4.725,3.372,7.1a1.15,1.15,0,0,0,1.016.763c2.841.382,5.672.829,8.51,1.234a2.5,2.5,0,0,1,1.4,4.434c-2.016,1.964-4.021,3.94-6.055,5.886a1.293,1.293,0,0,0-.452,1.345c.524,2.79.971,5.594,1.457,8.39a2.484,2.484,0,0,1-.937,2.618,2.436,2.436,0,0,1-2.775.136c-2.537-1.333-5.076-2.662-7.6-4.023a1.253,1.253,0,0,0-1.346,0q-3.749,2.018-7.533,3.971c-1.685.867-3.366.19-3.758-1.494a3.2,3.2,0,0,1-.009-1.213c.463-2.828.929-5.656,1.452-8.474a1.166,1.166,0,0,0-.41-1.2C144,13.9,142,11.994,140.065,10.028a3.922,3.922,0,0,1-1.058-1.774,2.33,2.33,0,0,1,2.125-2.775Q145.459,4.8,149.8,4.2a1.15,1.15,0,0,0,1.008-.773c1.121-2.4,2.3-4.769,3.4-7.174A4.14,4.14,0,0,1,156.186-6Z" transform="translate(-115.171 6)" fill="#fff"/>
      <path id="Path_22" data-name="Path 22" d="M146.68,404.924a3.039,3.039,0,0,1-1.818-3.306c.148-2.423.03-4.875.349-7.272a16.072,16.072,0,0,1,4.872-9.26,17.187,17.187,0,0,0,24.01,0,16.772,16.772,0,0,1,3.914,5.722,17.353,17.353,0,0,1,1.321,6.871c0,1.312-.064,2.628.016,3.935a3.033,3.033,0,0,1-1.821,3.3Z" transform="translate(-120.101 -320.924)" fill="#fff"/>
      <path id="Path_23" data-name="Path 23" d="M376.918,404.888a8.9,8.9,0,0,0,.422-1.823c.079-3.845.36-7.709-.744-11.478-.2-.676-.423-1.345-.675-2.141a16.994,16.994,0,0,0,8.641-.142,17.941,17.941,0,0,0,7.486-4.26,17.354,17.354,0,0,1,5.034,9.866c.041.266.119.527.18.791v7.383a3.791,3.791,0,0,1-1.8,1.8Z" transform="translate(-313.262 -320.888)" fill="#fff"/>
      <path id="Path_24" data-name="Path 24" d="M-6,395.806c.427-1.6.754-3.239,1.306-4.8A15.465,15.465,0,0,1-.8,385.17a17.6,17.6,0,0,0,16.126,4.415c-.23.72-.451,1.369-.645,2.026a26.763,26.763,0,0,0-.824,8.282c.039,1.712-.2,3.45.487,5.1H-4.2a3.767,3.767,0,0,1-1.8-1.8Z" transform="translate(6 -320.994)" fill="#fff"/>
      <path id="Path_27" data-name="Path 27" d="M74.24,248.75a12.383,12.383,0,0,1-17.568,9.6,12.242,12.242,0,0,1-4.731-3.951,13.151,13.151,0,0,1-2.285-5.829,12.6,12.6,0,0,1-14.7,10.752,12.318,12.318,0,1,1,14.616-13.532c1.7-7.12,6-11.258,13.425-10.731,6.345.451,9.943,4.517,11.264,10.926a12.415,12.415,0,0,1,6.311-9.495,11.754,11.754,0,0,1,8.317-1.326A12.3,12.3,0,0,1,87.558,259.5,12.484,12.484,0,0,1,74.24,248.75Z" transform="translate(-19.924 -195.393)" fill="#fff"/>
    </g>
  </g>
</svg>
