<svg xmlns="http://www.w3.org/2000/svg" xmlns:xlink="http://www.w3.org/1999/xlink" width="29.952" height="29.945" viewBox="0 0 29.952 29.945">
  <defs>
    <linearGradient id="linear-gradient" x1="1" y1="1" x2="0.084" y2="0.135" gradientUnits="objectBoundingBox">
      <stop offset="0" stop-color="#f58529"/>
      <stop offset="0.268" stop-color="#feda77"/>
      <stop offset="0.532" stop-color="#dd2a7b"/>
      <stop offset="0.756" stop-color="#8134af"/>
      <stop offset="1" stop-color="#515bd4"/>
    </linearGradient>
  </defs>
  <path id="insta" d="M14.974,9.533a7.678,7.678,0,1,0,7.678,7.678A7.665,7.665,0,0,0,14.974,9.533Zm0,12.669a4.991,4.991,0,1,1,4.991-4.991A5,5,0,0,1,14.974,22.2ZM24.756,9.219a1.791,1.791,0,1,1-1.791-1.791A1.787,1.787,0,0,1,24.756,9.219Zm5.085,1.817a8.862,8.862,0,0,0-2.419-6.274,8.92,8.92,0,0,0-6.274-2.419c-2.472-.14-9.883-.14-12.355,0A8.907,8.907,0,0,0,2.519,4.755,8.891,8.891,0,0,0,.1,11.029C-.04,13.5-.04,20.912.1,23.384a8.862,8.862,0,0,0,2.419,6.274,8.932,8.932,0,0,0,6.274,2.419c2.472.14,9.883.14,12.355,0a8.862,8.862,0,0,0,6.274-2.419,8.92,8.92,0,0,0,2.419-6.274c.14-2.472.14-9.876,0-12.348Zm-3.194,15A5.053,5.053,0,0,1,23.8,28.883c-1.971.782-6.649.6-8.827.6s-6.862.174-8.827-.6A5.053,5.053,0,0,1,3.3,26.037c-.782-1.971-.6-6.649-.6-8.827s-.174-6.862.6-8.827A5.053,5.053,0,0,1,6.147,5.537c1.971-.782,6.649-.6,8.827-.6s6.862-.174,8.827.6a5.053,5.053,0,0,1,2.846,2.846c.782,1.971.6,6.649.6,8.827S27.429,24.073,26.647,26.037Z" transform="translate(0.005 -2.238)" fill="url(#linear-gradient)"/>
</svg>
