<svg id="itunes" xmlns="http://www.w3.org/2000/svg" xmlns:xlink="http://www.w3.org/1999/xlink" width="50" height="50" viewBox="0 0 50 50">
  <defs>
    <linearGradient id="linear-gradient" x1="0.5" x2="0.5" y2="1" gradientUnits="objectBoundingBox">
      <stop offset="0" stop-color="#f58529"/>
      <stop offset="1" stop-color="#f52929"/>
    </linearGradient>
  </defs>
  <path id="Path_220" data-name="Path 220" d="M25,0A25,25,0,1,0,50,25,25,25,0,0,0,25,0Zm0,47.9A22.9,22.9,0,1,1,47.9,25,22.9,22.9,0,0,1,25,47.9Zm0,0" fill="url(#linear-gradient)"/>
  <path id="Path_221" data-name="Path 221" d="M139.347,117.468a4.228,4.228,0,0,0,2.928-3.018l.125-.444.016-11.9c.013-8.91,0-11.954-.048-12.12a1.106,1.106,0,0,0-.238-.441,1.02,1.02,0,0,0-.553-.15,9.947,9.947,0,0,0-1.125.16c-2.091.389-14.418,2.9-14.628,2.982a1.578,1.578,0,0,0-.8.727l-.13.263s-.061,18.649-.156,18.859a1.418,1.418,0,0,1-.756.719c-.139.046-.69.172-1.224.281-2.473.5-3.392.867-4.169,1.647a3.507,3.507,0,0,0-.909,1.683,4.393,4.393,0,0,0,.1,2.067,3.531,3.531,0,0,0,.951,1.459,3.668,3.668,0,0,0,1.353.665,7.042,7.042,0,0,0,4.335-.674,4.785,4.785,0,0,0,1.339-1.294,5.1,5.1,0,0,0,.4-.819c.353-.938.364-17.645.409-17.856a.9.9,0,0,1,.644-.707c.3-.08,12.165-2.481,12.5-2.529a.778.778,0,0,1,.723.246.61.61,0,0,1,.219.2c.1.147.1.438.116,5.727.017,6.088.024,5.946-.3,6.33-.235.28-.529.388-1.735.639a12.008,12.008,0,0,0-3.166.917,3.391,3.391,0,0,0-1.742,1.718,3.3,3.3,0,0,0-.365,1.551,3.412,3.412,0,0,0,1.105,2.56c.07.071.14.137.209.2a3.093,3.093,0,0,0,1.271.6,7.915,7.915,0,0,0,3.3-.251Zm0,0" transform="translate(-106.117 -80.668)" fill="url(#linear-gradient)"/>
</svg>
