<svg xmlns="http://www.w3.org/2000/svg" xmlns:xlink="http://www.w3.org/1999/xlink" width="140.999" height="71.835" viewBox="0 0 140.999 71.835">
  <defs>
    <radialGradient id="radial-gradient" cx="0.499" cy="0.506" r="0.652" gradientTransform="translate(0.142) scale(0.716 1)" gradientUnits="objectBoundingBox">
      <stop offset="0.338" stop-color="#f77e06"/>
      <stop offset="0.739" stop-color="#d76f07"/>
      <stop offset="1" stop-color="#c16508"/>
    </radialGradient>
    <radialGradient id="radial-gradient-2" cx="0.5" cy="0.492" r="0.7" gradientTransform="translate(0.171) scale(0.658 1)" xlink:href="#radial-gradient"/>
    <radialGradient id="radial-gradient-3" cx="0.5" cy="0.493" r="0.697" gradientTransform="translate(0.169) scale(0.662 1)" xlink:href="#radial-gradient"/>
    <radialGradient id="radial-gradient-4" cx="0.5" cy="0.491" r="0.701" gradientTransform="translate(0.172) scale(0.656 1)" xlink:href="#radial-gradient"/>
    <radialGradient id="radial-gradient-5" cx="0.514" cy="0.479" r="0.653" gradientTransform="translate(0.149) scale(0.702 1)" gradientUnits="objectBoundingBox">
      <stop offset="0" stop-color="#f77e06"/>
      <stop offset="0.338" stop-color="#f28705"/>
      <stop offset="0.739" stop-color="#d76f07"/>
      <stop offset="1" stop-color="#c16508"/>
    </radialGradient>
  </defs>
  <g id="logo" transform="translate(-62.659 -56.27)">
    <text id="موهوب" transform="translate(107.658 88.27)" fill="#f28705" font-size="30" font-family="SegoeUI, Segoe UI"><tspan x="0" y="0">موهوب</tspan></text>
    <text id="mawhoob" transform="translate(108.055 116.775)" fill="#eaeaea" font-size="20" font-family="Cairo-Regular, Cairo" letter-spacing="0.065em"><tspan x="0" y="0">mawhoob</tspan></text>
    <path id="Path_3728" data-name="Path 3728" d="M103.226,71.27a6.641,6.641,0,0,1,1.026,1.352,5.036,5.036,0,0,1,.559,1.692,5.733,5.733,0,0,1-.783,3.586,10.752,10.752,0,0,1-2.332,2.766,13.546,13.546,0,0,1-1.424,1.089L99.886,82l-.386.229-.72.415a97.542,97.542,0,0,1-11.973,5.726q-1.542.607-3.09,1.189c-1.038.374-2.074.75-3.118,1.1-2.093.7-4.161,1.371-6.266,2q-1.574.474-3.161.917l-1.582.437a6.926,6.926,0,0,0-1.344.482,3.1,3.1,0,0,0-1.026.813,3.794,3.794,0,0,0-.682,1.237,3.237,3.237,0,0,0-.151,1.456,3.094,3.094,0,0,0,.634,1.439,3.1,3.1,0,0,1-1.161-1.269,3.739,3.739,0,0,1-.328-1.794A4.688,4.688,0,0,1,66,94.561a4.6,4.6,0,0,1,1.228-1.543,8.268,8.268,0,0,1,1.594-.976c.506-.25,1-.471,1.5-.709q1.5-.7,3-1.362c2.005-.891,4.047-1.74,6.065-2.558l6.057-2.434c4.035-1.615,8.057-3.23,12.068-4.9l.753-.314.347-.143.332-.152c.447-.215.889-.459,1.318-.719a10.147,10.147,0,0,0,2.291-1.864,4.484,4.484,0,0,0,1.18-4.07A7.866,7.866,0,0,0,103.226,71.27Z" transform="translate(-1.703 -6.53)" fill="url(#radial-gradient)"/>
    <path id="Path_3729" data-name="Path 3729" d="M99.766,101.369a2.117,2.117,0,0,1,1.369.781,3.125,3.125,0,0,1,.7,1.548,3.4,3.4,0,0,1-.2,1.8,3.9,3.9,0,0,1-1.119,1.491,11.676,11.676,0,0,1-1.351.937l-1.292.8q-1.3.783-2.63,1.51a94.527,94.527,0,0,1-10.98,5.07l-2.826,1.057c-.948.33-1.9.667-2.847.981-1.894.628-3.795,1.237-5.715,1.8q-1.439.424-2.89.817a7.773,7.773,0,0,0-2.448.909,3.3,3.3,0,0,0-.8,4.671,3.127,3.127,0,0,1-1.126-1.1,3.462,3.462,0,0,1-.45-1.615,4.67,4.67,0,0,1,1.146-3.265,5.714,5.714,0,0,1,1.408-1.125c.5-.293.972-.5,1.417-.721q1.36-.646,2.732-1.261c1.828-.825,3.675-1.6,5.53-2.36l2.773-1.106,2.773-1.084,11.1-4.263,2.786-1.06,1.4-.53a12,12,0,0,0,1.267-.514,2.473,2.473,0,0,0,.888-.694,2.342,2.342,0,0,0,.446-1.1,2.569,2.569,0,0,0-.152-1.289A1.981,1.981,0,0,0,99.766,101.369Z" transform="translate(-1.482 -24.398)" fill="url(#radial-gradient-2)"/>
    <path id="Path_3730" data-name="Path 3730" d="M99.71,120.611a2.124,2.124,0,0,1,1.374.789,3.131,3.131,0,0,1,.693,1.561,3.382,3.382,0,0,1-.216,1.8,3.932,3.932,0,0,1-1.139,1.486,12.463,12.463,0,0,1-1.356.933c-.43.272-.865.535-1.3.8q-1.307.786-2.647,1.516a95.089,95.089,0,0,1-11.049,5.092l-2.844,1.061c-.953.332-1.912.67-2.863.986-1.9.632-3.817,1.245-5.749,1.809q-1.447.427-2.907.823a6.227,6.227,0,0,0-2.363.962,3.62,3.62,0,0,0-1.237,2.138,2.725,2.725,0,0,0,.063,1.322,3.476,3.476,0,0,0,.73,1.26,3.369,3.369,0,0,1-1.221-1.007,3.263,3.263,0,0,1-.591-1.589,4.708,4.708,0,0,1,.938-3.347,5.4,5.4,0,0,1,1.377-1.223,14.538,14.538,0,0,1,1.45-.764q1.368-.649,2.749-1.267c1.839-.83,3.7-1.611,5.563-2.373l2.791-1.112,2.79-1.088L93.917,126.9l2.8-1.067,1.4-.534a13.1,13.1,0,0,0,1.284-.517,2.514,2.514,0,0,0,.9-.692,2.319,2.319,0,0,0,.455-1.1,2.567,2.567,0,0,0-.147-1.3A1.986,1.986,0,0,0,99.71,120.611Z" transform="translate(-1.426 -35.821)" fill="url(#radial-gradient-3)"/>
    <path id="Path_3731" data-name="Path 3731" d="M101.477,140.268a2.115,2.115,0,0,1,1.367.777,3.137,3.137,0,0,1,.7,1.543,3.409,3.409,0,0,1-.193,1.791,3.893,3.893,0,0,1-1.111,1.494,11.33,11.33,0,0,1-1.349.939l-1.288.794q-1.3.781-2.622,1.506a94.063,94.063,0,0,1-10.949,5.06q-1.407.538-2.818,1.055c-.946.33-1.894.666-2.84.979-1.889.626-3.785,1.233-5.7,1.791q-1.435.422-2.883.814a8.718,8.718,0,0,0-2.482.886,3.552,3.552,0,0,0-1.413,1.992,2.939,2.939,0,0,0,.457,2.651,3.059,3.059,0,0,1-1.08-1.141,3.566,3.566,0,0,1-.39-1.623,4.647,4.647,0,0,1,1.233-3.223,6,6,0,0,1,1.419-1.085c.5-.282.956-.487,1.4-.7q1.356-.645,2.725-1.259c1.823-.824,3.665-1.6,5.515-2.354l2.764-1.1,2.765-1.081,11.071-4.254,2.778-1.057,1.393-.529a11.56,11.56,0,0,0,1.26-.513,2.46,2.46,0,0,0,.881-.694,2.351,2.351,0,0,0,.442-1.1,2.57,2.57,0,0,0-.154-1.286A1.978,1.978,0,0,0,101.477,140.268Z" transform="translate(-2.508 -47.491)" fill="url(#radial-gradient-4)"/>
    <path id="Path_3732" data-name="Path 3732" d="M98.284,162.2a2.314,2.314,0,0,1,1.594,1.218,3.317,3.317,0,0,1-.809,4.137,6.96,6.96,0,0,1-.881.657l-.844.527c-2.236,1.37-4.54,2.624-6.881,3.8a139.13,139.13,0,0,1-14.421,6.119l-3.651,1.326-3.669,1.28a13.191,13.191,0,0,0-1.59.6,3.2,3.2,0,0,0-.517.325,2.112,2.112,0,0,0-.392.393,2.451,2.451,0,0,0-.451,2.154,2.277,2.277,0,0,0,.765.931c.1.072.208.151.307.215a1.589,1.589,0,0,0,.254.136c.077.046.2.072.3.116s.229.057.346.087a8.011,8.011,0,0,0,3.369-.327,39.066,39.066,0,0,0,7.049-3.029,25.239,25.239,0,0,1-6.413,4.709,9.333,9.333,0,0,1-4.231,1.04,5.285,5.285,0,0,1-1.25-.2,4.138,4.138,0,0,1-.642-.241c-.188-.089-.354-.177-.532-.278a4.914,4.914,0,0,1-1.887-1.856,4.742,4.742,0,0,1-.527-2.744,5.8,5.8,0,0,1,.86-2.5,5.435,5.435,0,0,1,.883-1.071,5.928,5.928,0,0,1,1.073-.792,9.753,9.753,0,0,1,1.062-.527c.336-.145.628-.261.931-.382l3.634-1.419,3.651-1.373c4.875-1.78,9.712-3.5,14.541-5.315q3.622-1.354,7.232-2.773a11.858,11.858,0,0,0,1.67-.709,2.365,2.365,0,0,0,1.036-1.13,2.594,2.594,0,0,0,.116-1.671A2.139,2.139,0,0,0,98.284,162.2Z" transform="translate(0 -60.509)" fill="url(#radial-gradient-5)"/>
  </g>
</svg>
