<svg xmlns="http://www.w3.org/2000/svg" width="30" height="30.001" viewBox="0 0 30 30.001"><defs><style>.a{fill:#f28705;}</style></defs><path class="a" d="M21.653,22.97v2.344A4.693,4.693,0,0,1,16.966,30H5.188A4.693,4.693,0,0,1,.5,25.314V4.688A4.693,4.693,0,0,1,5.188,0H16.966a4.693,4.693,0,0,1,4.688,4.688V7.032a1.172,1.172,0,1,1-2.344,0V4.688a2.347,2.347,0,0,0-2.344-2.344H5.188A2.347,2.347,0,0,0,2.844,4.688V25.314a2.347,2.347,0,0,0,2.344,2.344H16.966a2.347,2.347,0,0,0,2.344-2.344V22.97a1.172,1.172,0,1,1,2.344,0Zm7.99-9.982-2.624-2.624a1.172,1.172,0,0,0-1.657,1.657l1.867,1.867H13.157a1.172,1.172,0,1,0,0,2.344H27.228L25.362,18.1a1.172,1.172,0,1,0,1.657,1.657l2.624-2.624a2.933,2.933,0,0,0,0-4.143Zm0,0" transform="translate(-0.5)"/></svg>