<svg xmlns="http://www.w3.org/2000/svg" width="19.539" height="24" viewBox="0 0 19.539 24">
  <g id="pdf-file" transform="translate(-44.807)">
    <path id="Path_233" data-name="Path 233" d="M119.7,298.048c0-.4-.277-.636-.765-.636a1.692,1.692,0,0,0-.4.038v1.279a1.535,1.535,0,0,0,.328.025C119.381,298.754,119.7,298.492,119.7,298.048Z" transform="translate(-70.057 -282.607)" fill="#f28705"/>
    <path id="Path_234" data-name="Path 234" d="M194.247,297.681a2.021,2.021,0,0,0-.443.038v2.832a1.774,1.774,0,0,0,.341.02,1.342,1.342,0,0,0,1.465-1.516A1.242,1.242,0,0,0,194.247,297.681Z" transform="translate(-141.581 -282.863)" fill="#f28705"/>
    <path id="Path_235" data-name="Path 235" d="M58.279,0H48.639a2.558,2.558,0,0,0-2.554,2.554V12h-.249a1.029,1.029,0,0,0-1.029,1.029v6.242A1.029,1.029,0,0,0,45.835,20.3h.249v1.145A2.557,2.557,0,0,0,48.639,24H61.792a2.557,2.557,0,0,0,2.554-2.554V6.046ZM47.506,14.156a8.069,8.069,0,0,1,1.323-.089,2.075,2.075,0,0,1,1.323.347,1.265,1.265,0,0,1,.463,1,1.384,1.384,0,0,1-.4,1.028,2.008,2.008,0,0,1-1.407.456,2.535,2.535,0,0,1-.334-.019v1.548h-.97Zm14.285,8.28H48.639a.991.991,0,0,1-.989-.99V20.3H59.911a1.029,1.029,0,0,0,1.029-1.029V13.029A1.029,1.029,0,0,0,59.911,12H47.65V2.554a.991.991,0,0,1,.989-.988l9.054-.009V4.9a1.772,1.772,0,0,0,1.771,1.771l3.278-.009.037,14.78A.99.99,0,0,1,61.792,22.436ZM51.24,18.408V14.156a8.817,8.817,0,0,1,1.323-.089,2.787,2.787,0,0,1,1.773.462,1.916,1.916,0,0,1,.732,1.632,2.194,2.194,0,0,1-.719,1.753,3.107,3.107,0,0,1-2,.559A8.474,8.474,0,0,1,51.24,18.408Zm7.01-2.518v.8H56.7v1.741h-.983V14.1h2.646v.8H56.7v.989Z" transform="translate(0)" fill="#f28705"/>
  </g>
</svg>
