<svg xmlns="http://www.w3.org/2000/svg" width="84" height="84" viewBox="0 0 84 84">
  <g id="screen" transform="translate(-599 -995)">
    <rect id="Rectangle_1568" data-name="Rectangle 1568" width="84" height="84" transform="translate(599 995)" fill="none"/>
    <g id="online-course" transform="translate(599 996)">
      <path id="Path_28" data-name="Path 28" d="M37.2,33.2a1.408,1.408,0,0,1-.6-.133l-23.8-11.2a1.4,1.4,0,0,1,0-2.534l23.8-11.2a1.4,1.4,0,0,1,1.193,0l23.8,11.2a1.4,1.4,0,0,1,0,2.534l-23.8,11.2a1.408,1.408,0,0,1-.6.133ZM16.689,20.6,37.2,30.253,57.711,20.6,37.2,10.947Z" transform="translate(4.8 3.2)" fill="#f28705"/>
      <path id="Path_29" data-name="Path 29" d="M35.2,40.259a1.4,1.4,0,0,1-.626-.147l-16.8-8.4A1.4,1.4,0,0,1,17,30.459V19.753a1.4,1.4,0,0,1,2-1.267l16.2,7.626,16.2-7.626a1.4,1.4,0,0,1,2,1.267V30.459a1.4,1.4,0,0,1-.774,1.253l-16.8,8.4a1.4,1.4,0,0,1-.626.147Z" transform="translate(6.8 7.341)" fill="#f28705"/>
      <path id="Path_30" data-name="Path 30" d="M54.2,18.8H30.4a1.4,1.4,0,1,1,0-2.8H54.2a1.4,1.4,0,1,1,0,2.8Z" transform="translate(11.6 6.4)" fill="#f28705"/>
      <path id="Path_31" data-name="Path 31" d="M47.4,31.4A1.4,1.4,0,0,1,46,30V17.4a1.4,1.4,0,1,1,2.8,0V30A1.4,1.4,0,0,1,47.4,31.4Z" transform="translate(18.4 6.4)" fill="#f28705"/>
      <path id="Path_32" data-name="Path 32" d="M30.4,22.4A1.4,1.4,0,0,1,29,21V15.4a1.4,1.4,0,1,1,2.8,0V21A1.4,1.4,0,0,1,30.4,22.4Z" transform="translate(11.6 5.6)" fill="#f28705"/>
      <path id="Path_33" data-name="Path 33" d="M45.4,32a1.4,1.4,0,0,1-1.163-2.177l2.8-4.2a1.4,1.4,0,0,1,2.33,1.554l-2.8,4.2A1.4,1.4,0,0,1,45.4,32Z" transform="translate(17.6 10)" fill="#f28705"/>
      <path id="Path_34" data-name="Path 34" d="M50.2,32a1.4,1.4,0,0,1-1.166-.623l-2.8-4.2a1.4,1.4,0,1,1,2.33-1.554l2.8,4.2A1.4,1.4,0,0,1,50.2,32Z" transform="translate(18.4 10)" fill="#f28705"/>
      <path id="Path_35" data-name="Path 35" d="M30.4,31A1.4,1.4,0,0,1,29,29.6V25.4a1.4,1.4,0,1,1,2.8,0v4.2A1.4,1.4,0,0,1,30.4,31Z" transform="translate(11.6 9.6)" fill="#f28705"/>
      <path id="Path_36" data-name="Path 36" d="M82.6,53.2H1.4A1.4,1.4,0,0,1,0,51.8V5.6A5.608,5.608,0,0,1,5.6,0H78.4A5.608,5.608,0,0,1,84,5.6V51.8A1.4,1.4,0,0,1,82.6,53.2ZM2.8,50.4H81.2V5.6a2.8,2.8,0,0,0-2.8-2.8H5.6A2.8,2.8,0,0,0,2.8,5.6Z" transform="translate(0)" fill="#f28705"/>
      <path id="Path_37" data-name="Path 37" d="M78.4,50H5.6A5.608,5.608,0,0,1,0,44.4v-7A1.4,1.4,0,0,1,1.4,36H82.6A1.4,1.4,0,0,1,84,37.4v7A5.608,5.608,0,0,1,78.4,50Z" transform="translate(0 14.4)" fill="#f28705"/>
      <path id="Path_38" data-name="Path 38" d="M35.8,42.8H27.4a1.4,1.4,0,1,1,0-2.8h8.4a1.4,1.4,0,0,1,0,2.8Z" transform="translate(10.4 16)" fill="#f28705"/>
      <path id="Path_39" data-name="Path 39" d="M75.4,51.6H5.4A1.4,1.4,0,0,1,4,50.2V5.4A1.4,1.4,0,0,1,5.4,4h70a1.4,1.4,0,0,1,1.4,1.4V50.2A1.4,1.4,0,0,1,75.4,51.6ZM6.8,48.8H74V6.8H6.8Z" transform="translate(1.6 1.6)" fill="#f28705"/>
      <path id="Path_40" data-name="Path 40" d="M54.6,60.4H18.2a4.2,4.2,0,0,1,0-8.4H54.6a4.2,4.2,0,1,1,0,8.4Z" transform="translate(5.6 20.8)" fill="#f28705"/>
      <path id="Path_41" data-name="Path 41" d="M18,56.6a1.4,1.4,0,0,1,1.4-1.4c4.645,0,7-3.3,7-9.8A1.4,1.4,0,0,1,27.8,44h14a1.4,1.4,0,0,1,1.4,1.4c0,6.5,2.355,9.8,7,9.8a1.4,1.4,0,0,1,1.4,1.4C51.6,57.373,18,57.373,18,56.6Zm8.219-1.4H43.382c-1.725-1.91-2.74-4.753-2.943-8.4H29.162C28.958,50.447,27.944,53.29,26.219,55.2Z" transform="translate(7.2 17.6)" fill="#f28705"/>
    </g>
  </g>
</svg>
