<svg xmlns="http://www.w3.org/2000/svg" width="24.907" height="21.891" viewBox="0 0 24.907 21.891">
  <g id="serv" transform="translate(-266 -2166)">
    <g id="product-care" transform="translate(266 2134.998)">
      <g id="Group_3147" data-name="Group 3147" transform="translate(0 31.002)">
        <g id="Group_3146" data-name="Group 3146" transform="translate(0 0)">
          <path id="Path_232" data-name="Path 232" d="M24.812,47.424a3.646,3.646,0,0,0-4.978-1.363l-2.266,1.295A2.193,2.193,0,0,0,15.421,45.6H13.962a4.936,4.936,0,0,1-2.592-.653,6.375,6.375,0,0,0-3.245-.807,4.193,4.193,0,0,0-2.594.852,2.76,2.76,0,0,1-1.784.607H.73a.73.73,0,0,0-.73.73v5.838a.73.73,0,0,0,.73.73H16.516a.729.729,0,0,0,.362-.1l7.662-4.378A.73.73,0,0,0,24.812,47.424Zm-8.49,4.009H4.476V47a4.32,4.32,0,0,0,1.864-.8A2.76,2.76,0,0,1,8.124,45.6a4.937,4.937,0,0,1,2.592.653,6.375,6.375,0,0,0,3.245.807h1.459a.73.73,0,0,1,0,1.459H11.043a.73.73,0,1,0,0,1.459h4.378a2.179,2.179,0,0,0,1.408-.514l3.729-2.131a2.191,2.191,0,0,1,2.518.245ZM5.205,36.84h.73v2.189a2.192,2.192,0,0,0,2.189,2.189H12.5A.729.729,0,0,0,13.018,41l.943-.943.943.943a.73.73,0,0,0,.516.214H19.8a2.192,2.192,0,0,0,2.189-2.189V36.84h.73a.73.73,0,0,0,0-1.459h-.73v-.73A2.192,2.192,0,0,0,19.8,32.461H14.691v-.73a.73.73,0,1,0-1.459,0v.73H8.124a2.192,2.192,0,0,0-2.189,2.189v.73h-.73a.73.73,0,1,0,0,1.459Zm2.189-.729h0V34.65a.731.731,0,0,1,.73-.73H19.8a.731.731,0,0,1,.73.73v4.378a.731.731,0,0,1-.73.73H15.723l-1.246-1.246a.73.73,0,0,0-1.032,0L12.2,39.758H8.124a.731.731,0,0,1-.73-.73Z" transform="translate(0 -31.002)" fill="#034c8c"/>
        </g>
      </g>
    </g>
  </g>
</svg>
