<svg xmlns="http://www.w3.org/2000/svg" xmlns:xlink="http://www.w3.org/1999/xlink" width="26.202" height="21.281" viewBox="0 0 26.202 21.281">
  <defs>
    <linearGradient id="linear-gradient" x1="0.404" y1="0.134" x2="1" y2="1.247" gradientUnits="objectBoundingBox">
      <stop offset="0" stop-color="#389dfc"/>
      <stop offset="1" stop-color="#1c4f7e"/>
    </linearGradient>
  </defs>
  <path id="twitter" d="M23.509,6.618c.017.233.017.466.017.7A15.174,15.174,0,0,1,8.246,22.6,15.175,15.175,0,0,1,0,20.185a11.109,11.109,0,0,0,1.3.066,10.755,10.755,0,0,0,6.667-2.294,5.38,5.38,0,0,1-5.021-3.724,6.772,6.772,0,0,0,1.014.083,5.68,5.68,0,0,0,1.413-.183,5.371,5.371,0,0,1-4.306-5.27V8.8a5.408,5.408,0,0,0,2.427.682A5.378,5.378,0,0,1,1.829,2.3,15.264,15.264,0,0,0,12.9,7.915a6.062,6.062,0,0,1-.133-1.23,5.375,5.375,0,0,1,9.294-3.674,10.573,10.573,0,0,0,3.408-1.3A5.356,5.356,0,0,1,23.11,4.673,10.765,10.765,0,0,0,26.2,3.842,11.543,11.543,0,0,1,23.509,6.618Z" transform="translate(0 -1.315)" fill="url(#linear-gradient)"/>
</svg>
